<svg id="svgCanvas" width="800" height="600"><circle cx="582" cy="149" r="11" fill="rgb(67, 223, 169)"></circle><circle cx="310" cy="196" r="21" fill="rgb(83, 67, 154)"></circle><circle cx="719" cy="269" r="23" fill="rgb(150, 221, 70)"></circle><circle cx="531" cy="118" r="28" fill="rgb(143, 136, 44)"></circle><circle cx="151" cy="195" r="46" fill="rgb(230, 191, 244)"></circle><circle cx="110" cy="223" r="55" fill="rgb(254, 143, 83)"></circle><circle cx="696" cy="159" r="47" fill="rgb(248, 172, 192)"></circle><circle cx="587" cy="259" r="33" fill="rgb(149, 163, 224)"></circle><circle cx="413" cy="134" r="16" fill="rgb(31, 20, 192)"></circle><circle cx="311" cy="546" r="23" fill="rgb(80, 166, 52)"></circle><circle cx="465" cy="432" r="31" fill="rgb(143, 174, 32)"></circle><circle cx="629" cy="483" r="27" fill="rgb(249, 97, 122)"></circle><circle cx="636" cy="306" r="19" fill="rgb(243, 45, 18)"></circle><circle cx="396" cy="430" r="28" fill="rgb(32, 176, 14)"></circle><circle cx="52" cy="281" r="30" fill="rgb(75, 218, 125)"></circle><circle cx="423" cy="195" r="44" fill="rgb(93, 45, 210)"></circle><circle cx="230" cy="146" r="21" fill="rgb(65, 131, 216)"></circle><circle cx="573" cy="461" r="26" fill="rgb(255, 152, 38)"></circle><circle cx="220" cy="416" r="24" fill="rgb(171, 176, 209)"></circle><circle cx="224" cy="331" r="20" fill="rgb(47, 4, 177)"></circle></svg>